<svg width="75" height="55" viewBox="0 0 75 55" fill="none" xmlns="http://www.w3.org/2000/svg">
<path d="M12.56 41.4C7.38667 41.4 4.8 38.84 4.8 33.72V25.2H2.72C1.38667 25.2 0.72 24.5733 0.72 23.32C0.72 22.0667 1.38667 21.44 2.72 21.44H4.8V17.8C4.8 16.12 5.64 15.28 7.32 15.28C8.97333 15.28 9.8 16.12 9.8 17.8V21.44H14.04C15.3733 21.44 16.04 22.0667 16.04 23.32C16.04 24.5733 15.3733 25.2 14.04 25.2H9.8V33.44C9.8 34.72 10.08 35.68 10.64 36.32C11.2 36.96 12.1067 37.28 13.36 37.28C13.8133 37.28 14.2133 37.24 14.56 37.16C14.9067 37.08 15.2133 37.0267 15.48 37C15.8 36.9733 16.0667 37.08 16.28 37.32C16.4933 37.5333 16.6 37.9867 16.6 38.68C16.6 39.2133 16.5067 39.6933 16.32 40.12C16.16 40.52 15.8533 40.8 15.4 40.96C15.0533 41.0667 14.6 41.16 14.04 41.24C13.48 41.3467 12.9867 41.4 12.56 41.4ZM21.5116 41.32C19.8049 41.32 18.9516 40.4667 18.9516 38.76V23.64C18.9516 21.96 19.7649 21.12 21.3916 21.12C23.0182 21.12 23.8316 21.96 23.8316 23.64V24.88C24.7916 22.5867 26.8449 21.3067 29.9916 21.04C31.1382 20.9067 31.7782 21.56 31.9116 23C32.0449 24.4133 31.3516 25.2 29.8316 25.36L28.9516 25.44C25.6716 25.76 24.0316 27.44 24.0316 30.48V38.76C24.0316 40.4667 23.1916 41.32 21.5116 41.32ZM40.8603 41.4C39.447 41.4 38.1803 41.1333 37.0603 40.6C35.967 40.04 35.1003 39.2933 34.4603 38.36C33.847 37.4267 33.5403 36.3733 33.5403 35.2C33.5403 33.76 33.9136 32.6267 34.6603 31.8C35.407 30.9467 36.6203 30.3333 38.3003 29.96C39.9803 29.5867 42.2336 29.4 45.0603 29.4H46.4603V28.56C46.4603 27.2267 46.167 26.2667 45.5803 25.68C44.9936 25.0933 44.007 24.8 42.6203 24.8C41.847 24.8 41.007 24.8933 40.1003 25.08C39.2203 25.2667 38.287 25.5867 37.3003 26.04C36.6603 26.3333 36.127 26.3733 35.7003 26.16C35.2736 25.92 34.9803 25.56 34.8203 25.08C34.687 24.5733 34.7136 24.0667 34.9003 23.56C35.1136 23.0533 35.527 22.68 36.1403 22.44C37.367 21.9333 38.5403 21.5733 39.6603 21.36C40.807 21.1467 41.847 21.04 42.7803 21.04C45.6336 21.04 47.7536 21.7067 49.1403 23.04C50.527 24.3467 51.2203 26.3867 51.2203 29.16V38.76C51.2203 40.4667 50.447 41.32 48.9003 41.32C47.327 41.32 46.5403 40.4667 46.5403 38.76V37.88C46.087 38.9733 45.367 39.84 44.3803 40.48C43.3936 41.0933 42.2203 41.4 40.8603 41.4ZM41.9003 37.96C43.207 37.96 44.287 37.5067 45.1403 36.6C46.0203 35.6933 46.4603 34.5467 46.4603 33.16V32.28H45.1003C42.5936 32.28 40.847 32.48 39.8603 32.88C38.9003 33.2533 38.4203 33.9467 38.4203 34.96C38.4203 35.84 38.727 36.56 39.3403 37.12C39.9536 37.68 40.807 37.96 41.9003 37.96ZM61.06 48.52C60.1533 48.52 59.5267 48.1867 59.18 47.52C58.8333 46.8533 58.8467 46.0933 59.22 45.24L61.5 40.2L54.66 24.44C54.2867 23.56 54.2867 22.7867 54.66 22.12C55.0333 21.4533 55.7667 21.12 56.86 21.12C57.4733 21.12 57.9667 21.2667 58.34 21.56C58.7133 21.8267 59.0467 22.3467 59.34 23.12L64.14 35.12L69.06 23.08C69.3533 22.3333 69.7 21.8267 70.1 21.56C70.5 21.2667 71.0333 21.12 71.7 21.12C72.5533 21.12 73.1533 21.4533 73.5 22.12C73.8467 22.7867 73.8333 23.5467 73.46 24.4L63.74 46.6C63.3933 47.3467 63.02 47.8533 62.62 48.12C62.22 48.3867 61.7 48.52 61.06 48.52Z" fill="#0E76A8"/>
<path d="M12.56 41.4C7.38667 41.4 4.8 38.84 4.8 33.72V25.2H2.72C1.38667 25.2 0.72 24.5733 0.72 23.32C0.72 22.0667 1.38667 21.44 2.72 21.44H4.8V17.8C4.8 16.12 5.64 15.28 7.32 15.28C8.97333 15.28 9.8 16.12 9.8 17.8V21.44H14.04C15.3733 21.44 16.04 22.0667 16.04 23.32C16.04 24.5733 15.3733 25.2 14.04 25.2H9.8V33.44C9.8 34.72 10.08 35.68 10.64 36.32C11.2 36.96 12.1067 37.28 13.36 37.28C13.8133 37.28 14.2133 37.24 14.56 37.16C14.9067 37.08 15.2133 37.0267 15.48 37C15.8 36.9733 16.0667 37.08 16.28 37.32C16.4933 37.5333 16.6 37.9867 16.6 38.68C16.6 39.2133 16.5067 39.6933 16.32 40.12C16.16 40.52 15.8533 40.8 15.4 40.96C15.0533 41.0667 14.6 41.16 14.04 41.24C13.48 41.3467 12.9867 41.4 12.56 41.4ZM21.5116 41.32C19.8049 41.32 18.9516 40.4667 18.9516 38.76V23.64C18.9516 21.96 19.7649 21.12 21.3916 21.12C23.0182 21.12 23.8316 21.96 23.8316 23.64V24.88C24.7916 22.5867 26.8449 21.3067 29.9916 21.04C31.1382 20.9067 31.7782 21.56 31.9116 23C32.0449 24.4133 31.3516 25.2 29.8316 25.36L28.9516 25.44C25.6716 25.76 24.0316 27.44 24.0316 30.48V38.76C24.0316 40.4667 23.1916 41.32 21.5116 41.32ZM40.8603 41.4C39.447 41.4 38.1803 41.1333 37.0603 40.6C35.967 40.04 35.1003 39.2933 34.4603 38.36C33.847 37.4267 33.5403 36.3733 33.5403 35.2C33.5403 33.76 33.9136 32.6267 34.6603 31.8C35.407 30.9467 36.6203 30.3333 38.3003 29.96C39.9803 29.5867 42.2336 29.4 45.0603 29.4H46.4603V28.56C46.4603 27.2267 46.167 26.2667 45.5803 25.68C44.9936 25.0933 44.007 24.8 42.6203 24.8C41.847 24.8 41.007 24.8933 40.1003 25.08C39.2203 25.2667 38.287 25.5867 37.3003 26.04C36.6603 26.3333 36.127 26.3733 35.7003 26.16C35.2736 25.92 34.9803 25.56 34.8203 25.08C34.687 24.5733 34.7136 24.0667 34.9003 23.56C35.1136 23.0533 35.527 22.68 36.1403 22.44C37.367 21.9333 38.5403 21.5733 39.6603 21.36C40.807 21.1467 41.847 21.04 42.7803 21.04C45.6336 21.04 47.7536 21.7067 49.1403 23.04C50.527 24.3467 51.2203 26.3867 51.2203 29.16V38.76C51.2203 40.4667 50.447 41.32 48.9003 41.32C47.327 41.32 46.5403 40.4667 46.5403 38.76V37.88C46.087 38.9733 45.367 39.84 44.3803 40.48C43.3936 41.0933 42.2203 41.4 40.8603 41.4ZM41.9003 37.96C43.207 37.96 44.287 37.5067 45.1403 36.6C46.0203 35.6933 46.4603 34.5467 46.4603 33.16V32.28H45.1003C42.5936 32.28 40.847 32.48 39.8603 32.88C38.9003 33.2533 38.4203 33.9467 38.4203 34.96C38.4203 35.84 38.727 36.56 39.3403 37.12C39.9536 37.68 40.807 37.96 41.9003 37.96ZM61.06 48.52C60.1533 48.52 59.5267 48.1867 59.18 47.52C58.8333 46.8533 58.8467 46.0933 59.22 45.24L61.5 40.2L54.66 24.44C54.2867 23.56 54.2867 22.7867 54.66 22.12C55.0333 21.4533 55.7667 21.12 56.86 21.12C57.4733 21.12 57.9667 21.2667 58.34 21.56C58.7133 21.8267 59.0467 22.3467 59.34 23.12L64.14 35.12L69.06 23.08C69.3533 22.3333 69.7 21.8267 70.1 21.56C70.5 21.2667 71.0333 21.12 71.7 21.12C72.5533 21.12 73.1533 21.4533 73.5 22.12C73.8467 22.7867 73.8333 23.5467 73.46 24.4L63.74 46.6C63.3933 47.3467 63.02 47.8533 62.62 48.12C62.22 48.3867 61.7 48.52 61.06 48.52Z" fill="#0E76A8"/>
</svg>
